{
  "accessors": [
    {
      "bufferView": 2,
      "componentType": 5126,
      "count": 62085,
      "max": [
        2.658522129058838,
        0.12000000476837158,
        2.7506964206695557
      ],
      "min": [
        -3.1263349056243896,
        -0.12000000476837158,
        -2.300464391708374
      ],
      "type": "VEC3"
    },
    {
      "bufferView": 2,
      "byteOffset": 745020,
      "componentType": 5126,
      "count": 62085,
      "max": [
        0.9999934434890747,
        0.9999999403953552,
        0.9999934434890747
      ],
      "min": [
        -0.9999934434890747,
        -0.9999999403953552,
        -0.9999934434890747
      ],
      "type": "VEC3"
    },
    {
      "bufferView": 1,
      "componentType": 5126,
      "count": 62085,
      "max": [
        1.0,
        1.0
      ],
      "min": [
        0.0,
        0.0
      ],
      "type": "VEC2"
    },
    {
      "bufferView": 0,
      "componentType": 5125,
      "count": 266154,
      "type": "SCALAR"
    },
    {
      "bufferView": 2,
      "byteOffset": 1490040,
      "componentType": 5126,
      "count": 61785,
      "max": [
        2.6525182723999023,
        0.12399999797344208,
        2.7446885108947754
      ],
      "min": [
        -3.120328187942505,
        -0.12399999797344208,
        -2.2944610118865967
      ],
      "type": "VEC3"
    },
    {
      "bufferView": 2,
      "byteOffset": 2231460,
      "componentType": 5126,
      "count": 61785,
      "max": [
        0.9999967217445374,
        1.0,
        0.9999966621398926
      ],
      "min": [
        -0.9999967217445374,
        -1.0,
        -0.9999966621398926
      ],
      "type": "VEC3"
    },
    {
      "bufferView": 1,
      "byteOffset": 496680,
      "componentType": 5126,
      "count": 61785,
      "max": [
        1.0,
        1.0
      ],
      "min": [
        0.0,
        0.0
      ],
      "type": "VEC2"
    },
    {
      "bufferView": 0,
      "byteOffset": 1064616,
      "componentType": 5125,
      "count": 266154,
      "type": "SCALAR"
    }
  ],
  "asset": {
    "extras": {
      "author": "tkkjee ​🥀 (https://sketchfab.com/tkkjee)",
      "license": "SKETCHFAB Standard (https://sketchfab.com/licenses)",
      "source": "https://sketchfab.com/3d-models/programmer-brain-c49e60710d674255a3bc4a60ed30ad9d",
      "title": "Programmer brain"
    },
    "generator": "Sketchfab-13.66.0",
    "version": "2.0"
  },
  "bufferViews": [
    {
      "buffer": 0,
      "byteLength": 2129232,
      "name": "floatBufferViews",
      "target": 34963
    },
    {
      "buffer": 0,
      "byteLength": 990960,
      "byteOffset": 2129232,
      "byteStride": 8,
      "name": "floatBufferViews",
      "target": 34962
    },
    {
      "buffer": 0,
      "byteLength": 2972880,
      "byteOffset": 3120192,
      "byteStride": 12,
      "name": "floatBufferViews",
      "target": 34962
    }
  ],
  "buffers": [
    {
      "byteLength": 6093072,
      "uri": "scene.bin"
    }
  ],
  "materials": [
    {
      "doubleSided": true,
      "name": "Material.007",
      "pbrMetallicRoughness": {
        "baseColorFactor": [
          0.02265222118797436,
          0.2828958775802494,
          0.6028280014287267,
          1.0
        ],
        "roughnessFactor": 0.46988338227872734
      }
    },
    {
      "doubleSided": true,
      "name": "Material.003",
      "pbrMetallicRoughness": {
        "roughnessFactor": 0.4881239017687224
      }
    }
  ],
  "meshes": [
    {
      "name": "Object_0",
      "primitives": [
        {
          "attributes": {
            "NORMAL": 1,
            "POSITION": 0,
            "TEXCOORD_0": 2
          },
          "indices": 3,
          "material": 0,
          "mode": 4
        }
      ]
    },
    {
      "name": "Object_1",
      "primitives": [
        {
          "attributes": {
            "NORMAL": 5,
            "POSITION": 4,
            "TEXCOORD_0": 6
          },
          "indices": 7,
          "material": 1,
          "mode": 4
        }
      ]
    }
  ],
  "nodes": [
    {
      "children": [
        1
      ],
      "matrix": [
        1.0,
        0.0,
        0.0,
        0.0,
        0.0,
        2.220446049250313e-16,
        -1.0,
        0.0,
        0.0,
        1.0,
        2.220446049250313e-16,
        0.0,
        0.0,
        0.0,
        0.0,
        1.0
      ],
      "name": "Sketchfab_model"
    },
    {
      "children": [
        2
      ],
      "name": "root"
    },
    {
      "children": [
        3,
        6
      ],
      "matrix": [
        1.0,
        0.0,
        0.0,
        0.0,
        0.0,
        2.220446049250313e-16,
        1.0,
        0.0,
        0.0,
        -1.0,
        2.220446049250313e-16,
        0.0,
        0.0,
        0.0,
        0.0,
        1.0
      ],
      "name": "GLTF_SceneRootNode"
    },
    {
      "children": [
        4
      ],
      "matrix": [
        1.1184231042861938,
        0.0,
        0.0,
        0.0,
        0.0,
        0.0,
        1.1184231042861938,
        0.0,
        0.0,
        -1.1184231042861938,
        0.0,
        0.0,
        0.0,
        0.0,
        0.0,
        1.0
      ],
      "name": "Curve.002_2"
    },
    {
      "children": [
        5
      ],
      "name": "Curve.004_1"
    },
    {
      "mesh": 0,
      "name": "Object_5"
    },
    {
      "children": [
        7
      ],
      "matrix": [
        1.1184231042861938,
        0.0,
        0.0,
        0.0,
        0.0,
        0.0,
        1.1184231042861938,
        0.0,
        0.0,
        -1.1184231042861938,
        0.0,
        0.0,
        0.0,
        0.0,
        0.0,
        1.0
      ],
      "name": "Curve.001_3"
    },
    {
      "mesh": 1,
      "name": "Object_7"
    }
  ],
  "scene": 0,
  "scenes": [
    {
      "name": "Sketchfab_Scene",
      "nodes": [
        0
      ]
    }
  ]
}
